<mxfile host="app.diagrams.net">
  <diagram name="Cloud Function to MongoDB Atlas" id="diagram1">
    <mxGraphModel dx="1050" dy="560" grid="1" gridSize="10" guides="1" tooltips="1" connect="1" arrows="1" fold="1" page="1" pageScale="1" pageWidth="827" pageHeight="1169">
      <root>
        <mxCell id="0"/>
        <mxCell id="1" parent="0"/>
        
        <!-- Cloud Function -->
        <mxCell id="2" value="Cloud Function" style="shape=cloud;whiteSpace=wrap;html=1;fillColor=#DAE8FC;" vertex="1" parent="1">
          <mxGeometry x="100" y="120" width="140" height="60" as="geometry"/>
        </mxCell>

        <!-- VPC Connector -->
        <mxCell id="3" value="VPC Connector" style="shape=hexagon;whiteSpace=wrap;html=1;fillColor=#FFF2CC;" vertex="1" parent="1">
          <mxGeometry x="280" y="120" width="140" height="60" as="geometry"/>
        </mxCell>

        <!-- Cloud NAT -->
        <mxCell id="4" value="Cloud NAT" style="shape=cloud;whiteSpace=wrap;html=1;fillColor=#FFE6CC;" vertex="1" parent="1">
          <mxGeometry x="460" y="120" width="120" height="60" as="geometry"/>
        </mxCell>

        <!-- Internet -->
        <mxCell id="5" value="Internet" style="shape=ellipse;whiteSpace=wrap;html=1;fillColor=#E1D5E7;" vertex="1" parent="1">
          <mxGeometry x="620" y="120" width="100" height="60" as="geometry"/>
        </mxCell>

        <!-- MongoDB Atlas -->
        <mxCell id="6" value="MongoDB Atlas" style="shape=cylinder3;whiteSpace=wrap;html=1;fillColor=#D5E8D4;" vertex="1" parent="1">
          <mxGeometry x="760" y="120" width="140" height="60" as="geometry"/>
        </mxCell>

        <!-- Arrows -->
        <mxCell id="7" style="endArrow=block;html=1;" edge="1" parent="1" source="2" target="3">
          <mxGeometry relative="1" as="geometry"/>
        </mxCell>

        <mxCell id="8" style="endArrow=block;html=1;" edge="1" parent="1" source="3" target="4">
          <mxGeometry relative="1" as="geometry"/>
        </mxCell>

        <mxCell id="9" style="endArrow=block;html=1;" edge="1" parent="1" source="4" target="5">
          <mxGeometry relative="1" as="geometry"/>
        </mxCell>

        <mxCell id="10" style="endArrow=block;html=1;" edge="1" parent="1" source="5" target="6">
          <mxGeometry relative="1" as="geometry"/>
        </mxCell>
      </root>
    </mxGraphModel>
  </diagram>
</mxfile>